
<svg version="1.1" id="Layer_1" xmlns="http://www.w3.org/2000/svg" xmlns:xlink="http://www.w3.org/1999/xlink" x="0px" y="0px"
	 viewBox="0 0 177.6 69.4" enable-background="new 0 0 177.6 69.4" xml:space="preserve">
<g>
	<path fill="#454545" d="M129.4,69.4h-14.5l-6.1-6.2c0-1.6,0-3.6,0-6V36h10.3v27.2h10.3V69.4z"/>
	<path fill="#454545" d="M152.2,63.3c0,1.8-0.9,3.3-2.6,4.6c-1.5,1.1-3.3,1.6-5.2,1.6h-8.9l-6.7-6.4V41.2c0-1.6,0.6-2.9,1.8-3.9
		c1.1-0.9,2.4-1.3,4.1-1.3h11.1l6.3,7.6V63.3z M141.9,61.1V50.3h-2.7v12.9L141.9,61.1z"/>
	<path fill="#454545" d="M177.6,69.4l-17.1-0.1c-1.4-1.4-3.5-3.4-6.2-6.2v-22c0-3.5,1.8-5.3,5.5-5.3h17.7v14.3h-12.9v12.9l2.5-2.2
		v-6.3h10.4V69.4z"/>
</g>
<g>
	<path fill="#454545" d="M18.1,0L7.3,33.4H0L10.7,0H18.1z"/>
	<path fill="#454545" d="M73.6,33.4H63.3v-8.5l-2.5,1.6v6.9H50.4V0h10.3v20.3l2.5-1.6V0h10.3V33.4z"/>
	<path fill="#454545" d="M99.9,33.4H89.6v-9.7L87,25.4v8.1H76.7V22.7l2.4-8.4h-2.4V5.2c0-1.9,0.7-3.2,2.1-4.1C80,0.4,81.3,0,82.5,0
		h17.4V33.4z M89.6,17.5v-3.2H87v4.8L89.6,17.5z"/>
	<path fill="#454545" d="M126.4,33.4l-10.3-0.1V14.3h-2.6v19.2h-10.3V22.9l2.4-8.7h-2.4V0h17.4c1.3,0,2.5,0.4,3.6,1.1
		c1.5,0.9,2.2,2.3,2.2,4.1V33.4z"/>
	<path fill="#454545" d="M152,33.4L135,33.4c-1.4-1.4-3.5-3.4-6.2-6.2v-22c0-3.5,1.8-5.3,5.5-5.3H152v14.3h-12.9v12.9l2.5-2.2v-6.3
		H152V33.4z"/>
	<path fill="#454545" d="M177.6,25h-12.9l1.9,2.2h7v6.3h-13.3l-5.9-6.1v-22c0-1.9,0.8-3.3,2.4-4.4c1-0.7,2.2-1,3.8-1h17v14.3h-12.8
		v4.5h12.9V25z"/>
	<path fill="#454545" d="M47.2,16.7V0H31.6L24,24.1v3.2c2.7,2.8,4.8,4.8,6.2,6.2h17v-6.3H36.6L34.3,25V14.3h2.6v2.4H47.2z"/>
	<path fill="#454545" d="M28.7,0L17.9,33.4h-7.3L21.4,0H28.7z"/>
</g>
</svg>
