<svg version="1.1" xmlns="http://www.w3.org/2000/svg" xmlns:xlink="http://www.w3.org/1999/xlink">
  <symbol viewBox="0 0 32 32" id="next">
    <path  d="M23,14.7l-5.4-5.4l0,0l-1.5-1.5l-1.5-1.5L9.5,1.2c-0.2-0.2-0.7-0.2-0.9,0c-0.2,0.2-0.2,0.7,0,0.9l5.1,5.1
	l8.4,8.4c0.2,0.2,0.2,0.7,0,0.9l-5.4,5.4L13.5,25l-4.9,4.9c-0.2,0.2-0.2,0.7,0,0.9c0.2,0.2,0.7,0.2,0.9,0l8.1-8.1l0,0l5.4-5.4
	C23.7,16.6,23.7,15.4,23,14.7z"/>
  </symbol>
  <symbol viewBox="0 0 32 32" id="prev">
    <path d="M9,17.3l5.4,5.4l0,0l1.5,1.5l1.5,1.5l5.1,5.1c0.2,0.2,0.7,0.2,0.9,0c0.2-0.2,0.2-0.7,0-0.9l-5.1-5.1
	l-8.4-8.4c-0.2-0.2-0.2-0.7,0-0.9l5.4-5.4L18.5,7l4.9-4.9c0.2-0.2,0.2-0.7,0-0.9c-0.2-0.2-0.7-0.2-0.9,0l-8.1,8.1l0,0L9,14.7
	C8.3,15.4,8.3,16.6,9,17.3z"/>
  </symbol>
  <symbol viewBox="0 0 32 32" id="first">
    <path d="M11.9,17.3l5.4,5.4l0,0l1.5,1.5l1.5,1.5l5.1,5.1c0.2,0.2,0.7,0.2,0.9,0c0.2-0.2,0.2-0.7,0-0.9l-5.1-5.1
		l-8.4-8.4c-0.2-0.2-0.2-0.7,0-0.9l5.4-5.4L21.4,7l4.9-4.9c0.2-0.2,0.2-0.7,0-0.9c-0.2-0.2-0.7-0.2-0.9,0l-8.1,8.1l0,0l-5.4,5.4
		C11.2,15.4,11.2,16.6,11.9,17.3z"/>
	<path d="M6.2,1c0.3,0,0.6,0.3,0.6,0.6v28.7c0,0.3-0.3,0.6-0.6,0.6l0,0c-0.3,0-0.6-0.3-0.6-0.6V1.6
		C5.5,1.3,5.8,1,6.2,1L6.2,1z"/>
  </symbol>
  <symbol viewBox="0 0 32 32" id="last">
    <path d="M20.1,14.7l-5.4-5.4l0,0l-1.5-1.5l-1.5-1.5L6.6,1.2C6.4,0.9,6,0.9,5.7,1.2s-0.2,0.7,0,0.9l5.1,5.1l8.4,8.4
		c0.2,0.2,0.2,0.7,0,0.9l-5.4,5.4L10.6,25l-4.9,4.9c-0.2,0.2-0.2,0.7,0,0.9c0.2,0.2,0.7,0.2,0.9,0l8.1-8.1l0,0l5.4-5.4
		C20.8,16.6,20.8,15.4,20.1,14.7z"/>
	<path d="M25.8,31c-0.3,0-0.6-0.3-0.6-0.6V1.6c0-0.3,0.3-0.6,0.6-0.6l0,0c0.3,0,0.6,0.3,0.6,0.6v28.7
		C26.5,30.7,26.2,31,25.8,31L25.8,31z"/>
  </symbol>
  <symbol viewBox="0 0 32 32" id="facebook">
    <path d="M12.8,28h4.8c0,0,0-6.6,0-12h3.6l0.4-4.8h-3.8V9.3c0-0.9,0.6-1.2,1.1-1.2c0.4,0,2.7,0,2.7,0V4l-3.7,0
			c-4.1,0-5.1,3.1-5.1,5v2.2h-2.4V16h2.4C12.8,21.4,12.8,28,12.8,28z"/>
  </symbol>
  <symbol viewBox="0 0 32 32" id="google">
    <path d="M22.3,20.1h1c0.3,0,0.5-0.2,0.5-0.5V16h3.6c0.3,0,0.5-0.2,0.5-0.5v-1c0-0.3-0.2-0.5-0.5-0.5h-3.6v-3.6
			c0-0.3-0.2-0.5-0.5-0.5h-1c-0.3,0-0.5,0.2-0.5,0.5V14h-3.6c-0.3,0-0.5,0.2-0.5,0.5v1c0,0.3,0.2,0.5,0.5,0.5h3.6v3.6
			C21.8,19.9,22.1,20.1,22.3,20.1z"/>
		<path d="M8.1,26.4C9,26.7,10,26.8,11,26.8c0.9,0,1.8-0.1,2.6-0.4c2.5-0.7,4.2-2.6,4.2-4.7c0-2.1-0.7-3.3-2.4-4.6
			c-0.8-0.5-1.5-1.3-1.5-1.6c0-0.4,0-0.7,1-1.4c1.3-1,2-2.3,2-3.7c0-1.3-0.4-2.4-1-3.2h0.5c0.1,0,0.2,0,0.3-0.1l1.4-1
			c0.2-0.1,0.3-0.4,0.2-0.6c-0.1-0.2-0.3-0.3-0.5-0.3h-6.4c-0.7,0-1.4,0.1-2.1,0.4C7,6.4,5.4,8.3,5.4,10.4c0,2.9,2.2,5.1,5.2,5.1
			c-0.1,0.2-0.1,0.5-0.1,0.7c0,0.4,0.1,0.9,0.3,1.3c0,0-0.1,0-0.1,0c-2.8,0-5.4,1.4-6.4,3.5C4.1,21.5,4,22,4,22.6
			c0,0.5,0.1,1,0.4,1.5C5,25.1,6.3,26,8.1,26.4z M8.7,10.3c-0.1-1.1,0.1-2,0.6-2.6c0.3-0.4,0.8-0.6,1.3-0.6l0.1,0
			c1.4,0,2.8,1.6,3,3.5c0.1,1.1-0.1,2.1-0.6,2.7c-0.3,0.4-0.8,0.6-1.3,0.6c0,0,0,0,0,0h0C10.3,13.8,8.9,12.2,8.7,10.3z M11.4,19.1
			L11.4,19.1c0.5,0,1,0.1,1.4,0.2c0.1,0.1,0.3,0.2,0.4,0.3c1,0.7,1.7,1.1,1.9,1.9c0,0.2,0.1,0.4,0.1,0.5c0,1.9-1.4,2.8-4.1,2.8
			c-2.1,0-3.7-1.3-3.7-2.9C7.3,20.4,9.2,19.1,11.4,19.1z"/>
  </symbol>
  <symbol viewBox="0 0 32 32" id="mail">
    <path d="M29.5,8.5c0-0.1-0.1-0.2-0.1-0.3c0-0.1,0-0.1,0-0.2c-0.1-0.1-0.1-0.3-0.2-0.4c0,0,0,0,0,0
	c-0.1-0.2-0.2-0.3-0.4-0.5L28.5,7l0,0c-0.4-0.3-0.9-0.5-1.5-0.5H5C4.4,6.5,3.9,6.7,3.5,7l0,0L3.3,7.2C3.1,7.3,3,7.5,2.9,7.7
	c0,0,0,0,0,0C2.8,7.8,2.7,7.9,2.7,8.1c0,0,0,0.1,0,0.2c0,0.1-0.1,0.2-0.1,0.3c0,0.2,0,0.3,0,0.5v14c0,1.4,1.1,2.5,2.5,2.5h22
	c1.4,0,2.5-1.1,2.5-2.5V9C29.5,8.8,29.5,8.7,29.5,8.5z M5,7.5h22c0.2,0,0.4,0.1,0.6,0.1L16,16.6L4.4,7.6C4.6,7.6,4.8,7.5,5,7.5z"/>
  </symbol>
  <symbol viewBox="0 0 32 32" id="tumblr">
    <path  d="M12.2,24.8c0.2,0.6,0.6,1.1,1.2,1.6c0.6,0.5,1.3,0.9,2.1,1.2c0.8,0.3,1.4,0.4,2.5,0.4
			c0.9,0,1.8-0.1,2.6-0.3c0.8-0.2,1.7-0.5,2.7-1v-3.8c-1.1,0.8-2.3,1.2-3.5,1.2c-0.7,0-1.2-0.2-1.7-0.5c-0.4-0.2-0.7-0.6-0.9-1
			C17,22.2,17,21.4,17,20v-6.2h5.3V9.5H17V4h-3.3c-0.1,1.2-0.4,2.3-0.8,3.1c-0.4,0.8-0.9,1.5-1.5,2.1c-0.6,0.6-1.7,1-2.6,1.3v3.4
			h3.1v8.4C11.9,23.3,12,24.2,12.2,24.8z"/>
  </symbol>
  <symbol viewBox="0 0 32 32" id="twitter">
    <path  d="M27.8,6.4c-1,0.6-2.1,1-3.3,1.2c-0.9-1-2.3-1.6-3.7-1.6c-2.8,0-5.1,2.3-5.1,5c0,0.4,0,0.8,0.1,1.2
			C11.5,12,7.8,10,5.2,6.9C4.8,7.7,4.5,8.5,4.5,9.5c0,1.8,0.9,3.3,2.3,4.2c-0.8,0-1.6-0.3-2.3-0.6c0,0,0,0,0,0.1
			c0,2.4,1.8,4.5,4.1,5c-0.4,0.1-0.9,0.2-1.4,0.2c-0.3,0-0.7,0-1-0.1c0.7,2,2.5,3.5,4.8,3.5c-1.8,1.4-4,2.2-6.4,2.2
			c-0.4,0-0.8,0-1.2-0.1c2.3,1.4,5,2.3,7.9,2.3C20.8,26,26,18.3,26,11.6c0-0.2,0-0.4,0-0.7c1-0.7,1.9-1.6,2.6-2.6
			c-0.9,0.4-1.9,0.7-2.9,0.8C26.6,8.5,27.4,7.5,27.8,6.4z"/>
  </symbol>
  <symbol viewBox="0 0 32 32" id="youtube">
    <path  d="M27.8,11c0,0-0.2-1.7-1-2.5c-0.9-1-1.9-1-2.4-1.1C21,7.2,16,7.2,16,7.2h0c0,0-5,0-8.4,0.3
					C7.1,7.5,6.1,7.5,5.2,8.5c-0.7,0.8-1,2.5-1,2.5S4,13,4,15v1.9C4,19,4.2,21,4.2,21s0.2,1.7,1,2.5c0.9,1,2.1,1,2.6,1.1
					c1.9,0.2,8.2,0.3,8.2,0.3s5,0,8.4-0.3c0.5-0.1,1.5-0.1,2.4-1.1c0.7-0.8,1-2.5,1-2.5s0.2-2,0.2-4.1V15C28,13,27.8,11,27.8,11z
					 M13.5,19.2l0-7l6.5,3.5L13.5,19.2z"/>
  </symbol>
	<symbol viewBox="0 0 32 32" id="instagram">
		<path d="M29.9,10.2c-0.1-1.5-0.3-2.5-0.7-3.4c-0.4-0.9-0.8-1.7-1.6-2.5c-0.8-0.8-1.6-1.3-2.5-1.6
		c-0.9-0.3-1.9-0.6-3.4-0.7C20.3,2,19.8,2,16,2c-3.8,0-4.3,0-5.8,0.1C8.7,2.2,7.7,2.4,6.8,2.7C5.9,3.1,5.1,3.6,4.3,4.3
		C3.6,5.1,3.1,5.9,2.7,6.8c-0.3,0.9-0.6,1.9-0.7,3.4C2,11.7,2,12.2,2,16c0,3.8,0,4.3,0.1,5.8c0.1,1.5,0.3,2.5,0.7,3.4
		c0.4,0.9,0.8,1.7,1.6,2.5c0.8,0.8,1.6,1.3,2.5,1.6c0.9,0.3,1.9,0.6,3.4,0.7c1.5,0.1,2,0.1,5.8,0.1c3.8,0,4.3,0,5.8-0.1
		c1.5-0.1,2.5-0.3,3.4-0.7c0.9-0.4,1.7-0.8,2.5-1.6c0.8-0.8,1.3-1.6,1.6-2.5c0.3-0.9,0.6-1.9,0.7-3.4c0.1-1.5,0.1-2,0.1-5.8
		C30,12.2,30,11.7,29.9,10.2z M27.4,21.7c-0.1,1.4-0.3,2.1-0.5,2.6c-0.3,0.7-0.6,1.1-1,1.6c-0.5,0.5-1,0.8-1.6,1
		c-0.5,0.2-1.2,0.4-2.6,0.5c-1.5,0.1-1.9,0.1-5.7,0.1c-3.7,0-4.2,0-5.7-0.1c-1.4-0.1-2.1-0.3-2.6-0.5c-0.7-0.3-1.1-0.6-1.6-1
		c-0.5-0.5-0.8-1-1-1.6c-0.2-0.5-0.4-1.2-0.5-2.6c-0.1-1.5-0.1-1.9-0.1-5.7c0-3.7,0-4.2,0.1-5.7C4.7,9,4.9,8.2,5.1,7.7
		c0.3-0.7,0.6-1.1,1-1.6c0.5-0.5,1-0.8,1.6-1C8.2,4.9,9,4.7,10.3,4.6c1.5-0.1,1.9-0.1,5.7-0.1s4.2,0,5.7,0.1
		c1.4,0.1,2.1,0.3,2.6,0.5c0.7,0.3,1.1,0.6,1.6,1c0.5,0.5,0.8,1,1,1.6c0.2,0.5,0.4,1.2,0.5,2.6c0.1,1.5,0.1,1.9,0.1,5.7
		C27.5,19.7,27.5,20.2,27.4,21.7z"/>
	<path d="M16,8.8c-4,0-7.2,3.2-7.2,7.2c0,4,3.2,7.2,7.2,7.2c4,0,7.2-3.2,7.2-7.2C23.2,12,20,8.8,16,8.8z M16,20.7
		c-2.6,0-4.7-2.1-4.7-4.7s2.1-4.7,4.7-4.7c2.6,0,4.7,2.1,4.7,4.7S18.6,20.7,16,20.7z"/>
	<path d="M25.2,8.5c0,0.9-0.8,1.7-1.7,1.7c-0.9,0-1.7-0.8-1.7-1.7c0-0.9,0.8-1.7,1.7-1.7C24.4,6.8,25.2,7.6,25.2,8.5
		"/>
	</symbol>
	<symbol viewbox="0 0 64 64" id="lineheight">
	<path d="M59.6,3L59.6,3C60.4,3,61,3.6,61,4.4l-0.1,47.9c0,0.6-0.4,1.2-1.1,1.4h-1.4l-0.1,0l0,0H4.5
		C3.7,53.7,3,53,3,52.1V4.5C3,3.7,3.7,3,4.5,3H54h3.8H59.6 M59.6,0h-1.7H54H4.5C2,0,0,2,0,4.5v47.6c0,2.5,2,4.5,4.5,4.5h53.9
		c0,0,0,0,0,0h1.6c2.1-0.3,3.8-2.2,3.8-4.4L64,4.4C64,2,62,0,59.6,0L59.6,0L59.6,0z"/>
	<path d="M0,9.2v0.9c14.1-4.7,37.4,8.4,51.1,13.3l-7.4,0c-3.8-0.3-8-0.6-12.2-0.7c-3.4-0.1-6.8-0.2-10-0.2
		c-1.6,0-3.1,0-4.6,0c-1.5,0-2.8,0.1-4.1,0.1c-1.3,0-2.4,0.1-3.5,0.1c-1,0-1.9,0.1-2.7,0.2c-1.5,0.1-2.3,0.2-2.3,0.2l0,0.1
		c0,0,0.8,0.2,2.3,0.4c0.7,0.1,1.6,0.2,2.7,0.4c1,0.1,2.1,0.3,3.3,0.4l0.2,1.1c0.1,0.6,0.3,1.2,0.4,1.8c0.2,0.6,0.4,1.2,0.6,1.8
		c0.2,0.6,0.5,1.1,0.7,1.7c0.3,0.6,0.6,1.1,0.9,1.6c0.3,0.5,0.7,1,1,1.5c0.4,0.5,0.8,1,1.2,1.4c0.4,0.5,0.9,0.9,1.3,1.3
		c0.4,0.4,0.9,0.8,1.4,1.2c0.5,0.4,1,0.7,1.5,1.1c0.5,0.4,1.1,0.6,1.6,1c0.5,0.3,1.1,0.5,1.7,0.8c0.6,0.3,1.2,0.4,1.8,0.7
		c0.6,0.2,1.2,0.3,1.8,0.5c1.2,0.3,2.5,0.5,3.7,0.5l0.5,0l0.1,0l0.1,0l0.1,0l0.2,0l0.9,0c0.6,0,1.2-0.1,1.9-0.2
		c0.7-0.1,1.3-0.2,1.9-0.3c0.6-0.1,1.2-0.3,1.8-0.5c0.6-0.2,1.2-0.4,1.8-0.7c0.6-0.2,1.2-0.5,1.7-0.8c1.1-0.6,2.2-1.3,3.2-2.1
		c0.4-0.3,0.9-0.7,1.3-1.1c-0.1,0.2-0.2,0.4-0.3,0.6c-0.4,0.6-0.9,1.3-1.4,1.9c-0.5,0.6-1.2,1.3-1.9,1.9c-0.7,0.6-1.5,1.1-2.3,1.6
		c-0.8,0.5-1.7,0.9-2.7,1.2c-1.9,0.7-3.8,1.1-5.7,1.2c-1.9,0.1-3.6,0-5.1-0.1c-3-0.4-4.9-1-4.9-1l0,0.1c0,0,1.9,0.8,4.9,1.3
		c1.5,0.2,3.3,0.4,5.2,0.4c1.9,0,4-0.3,6-1c1-0.3,1.9-0.7,2.9-1.2c0.9-0.5,1.8-1,2.5-1.6c0.8-0.6,1.5-1.3,2.1-1.9
		c0.6-0.7,1.1-1.3,1.6-2c0.4-0.7,0.8-1.3,1.1-1.8c0.3-0.6,0.6-1,0.8-1.5c0.2-0.4,0.5-1.2,0.7-2c0.1-0.2,0.3-0.4,0.4-0.6
		c0.3-0.5,0.6-1.1,0.9-1.7c0.3-0.6,0.5-1.2,0.8-1.8l0.6-1.8l0.3-1.3c0.7,0,1.3-0.1,1.8-0.1c1.5-0.1,2.3-0.2,2.3-0.2l0-0.1
		c1.5,0,2.6-0.4,3.2-1.4C44.2,16.4,21.4-5.9,0,9.2z M54.9,24.6c-0.1,0-0.2,0-0.3,0l0,0C54.8,24.6,54.8,24.6,54.9,24.6z M45.3,36.2
		c-0.9,0.7-1.8,1.4-2.8,2c-0.5,0.3-1,0.6-1.5,0.8c-0.5,0.2-1.1,0.5-1.6,0.7c-0.5,0.2-1.1,0.4-1.7,0.5c-0.6,0.1-1.1,0.3-1.7,0.4
		c-0.6,0.1-1.1,0.2-1.7,0.2l-0.9,0.1l-0.2,0l0,0l-0.1,0l-0.1,0l-0.4,0c-1.2,0-2.3-0.1-3.5-0.3c-0.6-0.1-1.2-0.2-1.7-0.4
		c-0.6-0.2-1.1-0.3-1.7-0.6C25,39.2,24.5,39,24,38.7c-0.5-0.3-1.1-0.5-1.5-0.8c-0.5-0.3-1-0.6-1.5-1c-0.5-0.4-0.9-0.7-1.4-1.1
		c-0.4-0.4-0.9-0.8-1.3-1.2c-0.4-0.4-0.8-0.9-1.2-1.3c-0.3-0.5-0.7-0.9-1-1.4c-0.3-0.5-0.6-1-0.9-1.5c-0.3-0.5-0.5-1.1-0.8-1.6
		c-0.2-0.6-0.4-1.1-0.6-1.7c-0.2-0.6-0.3-1.1-0.5-1.7l-0.2-0.9c1.2,0.1,2.4,0.3,3.7,0.4c1.5,0.1,3,0.3,4.6,0.4
		c3.2,0.2,6.6,0.4,10,0.6c0.8,0,1.5,0.1,2.3,0.1c0.4,2.7,2.8,4.7,5.6,4.7c1.3,0,2.4-0.4,3.4-1.1l-1.9-1.8l3.2,0.5
		c0.5-0.6,0.8-1.4,0.9-2.2c1.6,0,3.1,0,4.5-0.1l2.4,0.1l0,0.2l-0.5,1.6c-0.2,0.5-0.4,1.1-0.6,1.6c-0.3,0.5-0.5,1-0.8,1.5
		c-0.3,0.5-0.6,1-0.9,1.4c-0.4,0.5-0.7,0.9-1,1.4C47,34.6,46.1,35.4,45.3,36.2z"/>
	</symbol>

</svg>